{
	"asset":{
		"generator":"Khronos glTF Blender I/O v5.2.39",
		"version":"2.0"
	},
	"extensionsUsed":[
		"KHR_materials_emissive_strength"
	],
	"scene":0,
	"scenes":[
		{
			"name":"Scene",
			"nodes":[
				28
			]
		}
	],
	"nodes":[
		{
			"mesh":0,
			"name":"back"
		},
		{
			"mesh":1,
			"name":"front"
		},
		{
			"mesh":2,
			"name":"left"
		},
		{
			"mesh":3,
			"name":"right"
		},
		{
			"mesh":4,
			"name":"top"
		},
		{
			"children":[
				0,
				1,
				2,
				3,
				4
			],
			"name":"box",
			"translation":[
				3.25,
				0.30000001192092896,
				0
			]
		},
		{
			"camera":0,
			"name":"camera",
			"rotation":[
				-0.8929017782211304,
				0.15744267404079437,
				-0.07324951142072678,
				0.4154187738895416
			],
			"translation":[
				6.531539440155029,
				17.94849967956543,
				-19.499998092651367
			]
		},
		{
			"mesh":5,
			"name":"grid",
			"translation":[
				3.25,
				0.30000001192092896,
				0
			]
		},
		{
			"mesh":6,
			"name":"backplane",
			"translation":[
				-3.814697265625e-06,
				0,
				-2.281727802255773e-06
			]
		},
		{
			"mesh":7,
			"name":"light_emitter",
			"rotation":[
				0,
				0,
				0.7071068286895752,
				0.7071068286895752
			],
			"scale":[
				100,
				100,
				100
			],
			"translation":[
				0.000995635986328125,
				0,
				-2.2817275748820975e-06
			]
		},
		{
			"children":[
				8,
				9
			],
			"name":"emitterLeft",
			"translation":[
				-41.367698669433594,
				20.304800033569336,
				-19.881999969482422
			]
		},
		{
			"mesh":8,
			"name":"backplane.001"
		},
		{
			"mesh":9,
			"name":"light0_emitter",
			"rotation":[
				-0.7071068286895752,
				0,
				0,
				0.7071068286895752
			],
			"scale":[
				100,
				100,
				100
			],
			"translation":[
				-14.300067901611328,
				15.162026405334473,
				0.00010079760977532715
			]
		},
		{
			"mesh":10,
			"name":"light1_emitter",
			"rotation":[
				-0.7071068286895752,
				0,
				0,
				0.7071068286895752
			],
			"scale":[
				100,
				100,
				100
			],
			"translation":[
				15.162029266357422,
				14.300068855285645,
				0.00010073253361042589
			]
		},
		{
			"mesh":11,
			"name":"light2_emitter",
			"rotation":[
				-0.7071068286895752,
				0,
				0,
				0.7071068286895752
			],
			"scale":[
				100,
				100,
				100
			],
			"translation":[
				-15.162025451660156,
				-14.300070762634277,
				9.857328404905275e-05
			]
		},
		{
			"mesh":12,
			"name":"light3_emitter",
			"rotation":[
				-0.7071068286895752,
				0,
				0,
				0.7071068286895752
			],
			"scale":[
				100,
				100,
				100
			],
			"translation":[
				14.300073623657227,
				-15.162029266357422,
				9.850820788415149e-05
			]
		},
		{
			"children":[
				11,
				12,
				13,
				14,
				15
			],
			"name":"emitterTop",
			"translation":[
				16.426599502563477,
				6.235659599304199,
				-62.94639587402344
			]
		},
		{
			"children":[
				10,
				16
			],
			"name":"lights"
		},
		{
			"name":"mtlx"
		},
		{
			"name":"usdpreview"
		},
		{
			"children":[
				18,
				19
			],
			"name":"examples"
		},
		{
			"children":[
				20
			],
			"name":"materials"
		},
		{
			"mesh":13,
			"name":"material_surface"
		},
		{
			"mesh":14,
			"name":"base"
		},
		{
			"mesh":15,
			"name":"core"
		},
		{
			"mesh":16,
			"name":"sss_bars"
		},
		{
			"children":[
				23,
				24,
				25
			],
			"name":"neutral_objects"
		},
		{
			"children":[
				22,
				26
			],
			"name":"shader_ball"
		},
		{
			"children":[
				5,
				6,
				7,
				17,
				21,
				27
			],
			"name":"standard_shader_ball_scene",
			"rotation":[
				0.7071068286895752,
				0,
				0,
				0.7071068286895752
			],
			"scale":[
				0.009999999776482582,
				0.009999999776482582,
				0.009999999776482582
			]
		}
	],
	"cameras":[
		{
			"name":"camera",
			"perspective":{
				"aspectRatio":1.7777777777777777,
				"yfov":0.413122296333313,
				"zfar":10,
				"znear":0.0010000000474974513
			},
			"type":"perspective"
		}
	],
	"materials":[
		{
			"doubleSided":true,
			"name":"back",
			"pbrMetallicRoughness":{
				"baseColorTexture":{
					"index":0
				},
				"metallicFactor":0
			}
		},
		{
			"doubleSided":true,
			"name":"front",
			"pbrMetallicRoughness":{
				"baseColorTexture":{
					"index":1
				},
				"metallicFactor":0
			}
		},
		{
			"doubleSided":true,
			"name":"left",
			"pbrMetallicRoughness":{
				"baseColorTexture":{
					"index":2
				},
				"metallicFactor":0
			}
		},
		{
			"doubleSided":true,
			"name":"right",
			"pbrMetallicRoughness":{
				"baseColorTexture":{
					"index":3
				},
				"metallicFactor":0
			}
		},
		{
			"doubleSided":true,
			"name":"top",
			"pbrMetallicRoughness":{
				"baseColorTexture":{
					"index":4
				},
				"metallicFactor":0
			}
		},
		{
			"doubleSided":true,
			"name":"ground",
			"pbrMetallicRoughness":{
				"baseColorTexture":{
					"index":5
				},
				"metallicFactor":0
			}
		},
		{
			"doubleSided":true,
			"emissiveFactor":[
				1,
				1,
				1
			],
			"extensions":{
				"KHR_materials_emissive_strength":{
					"emissiveStrength":10
				}
			},
			"name":"light_emissive",
			"pbrMetallicRoughness":{
				"baseColorFactor":[
					0,
					0,
					0,
					1
				],
				"metallicFactor":0
			}
		},
		{
			"doubleSided":true,
			"emissiveFactor":[
				1,
				1,
				1
			],
			"extensions":{
				"KHR_materials_emissive_strength":{
					"emissiveStrength":5
				}
			},
			"name":"light0_emissive",
			"pbrMetallicRoughness":{
				"baseColorFactor":[
					0,
					0,
					0,
					1
				],
				"metallicFactor":0
			}
		},
		{
			"doubleSided":true,
			"emissiveFactor":[
				1,
				1,
				1
			],
			"extensions":{
				"KHR_materials_emissive_strength":{
					"emissiveStrength":5
				}
			},
			"name":"light1_emissive",
			"pbrMetallicRoughness":{
				"baseColorFactor":[
					0,
					0,
					0,
					1
				],
				"metallicFactor":0
			}
		},
		{
			"doubleSided":true,
			"emissiveFactor":[
				1,
				1,
				1
			],
			"extensions":{
				"KHR_materials_emissive_strength":{
					"emissiveStrength":5
				}
			},
			"name":"light2_emissive",
			"pbrMetallicRoughness":{
				"baseColorFactor":[
					0,
					0,
					0,
					1
				],
				"metallicFactor":0
			}
		},
		{
			"doubleSided":true,
			"emissiveFactor":[
				1,
				1,
				1
			],
			"extensions":{
				"KHR_materials_emissive_strength":{
					"emissiveStrength":5
				}
			},
			"name":"light3_emissive",
			"pbrMetallicRoughness":{
				"baseColorFactor":[
					0,
					0,
					0,
					1
				],
				"metallicFactor":0
			}
		},
		{
			"doubleSided":true,
			"name":"plastic_openpbr",
			"pbrMetallicRoughness":{
				"baseColorFactor":[
					0.20988400280475616,
					0.5620909929275513,
					0.765999972820282,
					1
				],
				"metallicFactor":0,
				"roughnessFactor":0.15000000596046448
			}
		},
		{
			"doubleSided":true,
			"name":"neutral",
			"pbrMetallicRoughness":{
				"baseColorTexture":{
					"index":6
				},
				"metallicFactor":0
			}
		},
		{
			"doubleSided":true,
			"name":"sss_bars",
			"pbrMetallicRoughness":{
				"metallicFactor":0
			}
		}
	],
	"meshes":[
		{
			"name":"back",
			"primitives":[
				{
					"attributes":{
						"POSITION":0,
						"NORMAL":1,
						"TEXCOORD_0":2
					},
					"indices":3,
					"material":0
				}
			]
		},
		{
			"name":"front",
			"primitives":[
				{
					"attributes":{
						"POSITION":4,
						"NORMAL":5,
						"TEXCOORD_0":6
					},
					"indices":3,
					"material":1
				}
			]
		},
		{
			"name":"left",
			"primitives":[
				{
					"attributes":{
						"POSITION":7,
						"NORMAL":8,
						"TEXCOORD_0":9
					},
					"indices":3,
					"material":2
				}
			]
		},
		{
			"name":"right",
			"primitives":[
				{
					"attributes":{
						"POSITION":10,
						"NORMAL":11,
						"TEXCOORD_0":12
					},
					"indices":3,
					"material":3
				}
			]
		},
		{
			"name":"top",
			"primitives":[
				{
					"attributes":{
						"POSITION":13,
						"NORMAL":14,
						"TEXCOORD_0":15
					},
					"indices":16,
					"material":4
				}
			]
		},
		{
			"name":"grid",
			"primitives":[
				{
					"attributes":{
						"POSITION":17,
						"NORMAL":18,
						"TEXCOORD_0":19
					},
					"indices":3,
					"material":5
				}
			]
		},
		{
			"name":"backplane",
			"primitives":[
				{
					"attributes":{
						"POSITION":20,
						"NORMAL":21,
						"COLOR_0":22
					},
					"indices":3
				}
			]
		},
		{
			"name":"light_emitter",
			"primitives":[
				{
					"attributes":{
						"POSITION":23,
						"NORMAL":24
					},
					"indices":25,
					"material":6
				}
			]
		},
		{
			"name":"backplane.001",
			"primitives":[
				{
					"attributes":{
						"POSITION":26,
						"NORMAL":27,
						"COLOR_0":28
					},
					"indices":3
				}
			]
		},
		{
			"name":"light0_emitter",
			"primitives":[
				{
					"attributes":{
						"POSITION":29,
						"NORMAL":30
					},
					"indices":31,
					"material":7
				}
			]
		},
		{
			"name":"light1_emitter",
			"primitives":[
				{
					"attributes":{
						"POSITION":32,
						"NORMAL":33
					},
					"indices":31,
					"material":8
				}
			]
		},
		{
			"name":"light2_emitter",
			"primitives":[
				{
					"attributes":{
						"POSITION":34,
						"NORMAL":35
					},
					"indices":31,
					"material":9
				}
			]
		},
		{
			"name":"light3_emitter",
			"primitives":[
				{
					"attributes":{
						"POSITION":36,
						"NORMAL":37
					},
					"indices":31,
					"material":10
				}
			]
		},
		{
			"name":"material_surface",
			"primitives":[
				{
					"attributes":{
						"POSITION":38,
						"NORMAL":39,
						"TEXCOORD_0":40
					},
					"indices":41,
					"material":11
				}
			]
		},
		{
			"name":"base",
			"primitives":[
				{
					"attributes":{
						"POSITION":42,
						"NORMAL":43,
						"TEXCOORD_0":44,
						"COLOR_0":45,
						"COLOR_1":46
					},
					"indices":47,
					"material":12
				}
			]
		},
		{
			"name":"core",
			"primitives":[
				{
					"attributes":{
						"POSITION":48,
						"NORMAL":49,
						"TEXCOORD_0":50,
						"COLOR_0":51,
						"COLOR_1":52
					},
					"indices":53,
					"material":12
				}
			]
		},
		{
			"name":"sss_bars",
			"primitives":[
				{
					"attributes":{
						"POSITION":54,
						"NORMAL":55,
						"TEXCOORD_0":56,
						"COLOR_0":57,
						"COLOR_1":58
					},
					"indices":59,
					"material":13
				}
			]
		}
	],
	"textures":[
		{
			"sampler":0,
			"source":0
		},
		{
			"sampler":0,
			"source":1
		},
		{
			"sampler":0,
			"source":2
		},
		{
			"sampler":0,
			"source":3
		},
		{
			"sampler":0,
			"source":4
		},
		{
			"sampler":0,
			"source":5
		},
		{
			"sampler":0,
			"source":6
		}
	],
	"images":[
		{
			"mimeType":"image/png",
			"name":"wall_back.ACEScg",
			"uri":"wall_back.ACEScg.png"
		},
		{
			"mimeType":"image/png",
			"name":"wall_front.ACEScg",
			"uri":"wall_front.ACEScg.png"
		},
		{
			"mimeType":"image/png",
			"name":"wall_left.ACEScg",
			"uri":"wall_left.ACEScg.png"
		},
		{
			"mimeType":"image/png",
			"name":"wall_right.ACEScg",
			"uri":"wall_right.ACEScg.png"
		},
		{
			"mimeType":"image/png",
			"name":"wall_top.ACEScg",
			"uri":"wall_top.ACEScg.png"
		},
		{
			"mimeType":"image/png",
			"name":"ground.ACEScg",
			"uri":"ground.ACEScg.png"
		},
		{
			"mimeType":"image/png",
			"name":"neutral.ACEScg",
			"uri":"neutral.ACEScg.png"
		}
	],
	"accessors":[
		{
			"bufferView":0,
			"componentType":5126,
			"count":4,
			"max":[
				50,
				50,
				0
			],
			"min":[
				-50,
				50,
				-75.86389923095703
			],
			"type":"VEC3"
		},
		{
			"bufferView":1,
			"componentType":5126,
			"count":4,
			"type":"VEC3"
		},
		{
			"bufferView":2,
			"componentType":5126,
			"count":4,
			"type":"VEC2"
		},
		{
			"bufferView":3,
			"componentType":5123,
			"count":6,
			"type":"SCALAR"
		},
		{
			"bufferView":4,
			"componentType":5126,
			"count":4,
			"max":[
				50,
				-50,
				0
			],
			"min":[
				-50,
				-50,
				-75.86389923095703
			],
			"type":"VEC3"
		},
		{
			"bufferView":5,
			"componentType":5126,
			"count":4,
			"type":"VEC3"
		},
		{
			"bufferView":6,
			"componentType":5126,
			"count":4,
			"type":"VEC2"
		},
		{
			"bufferView":7,
			"componentType":5126,
			"count":4,
			"max":[
				-50,
				50,
				0
			],
			"min":[
				-50,
				-50,
				-75.86389923095703
			],
			"type":"VEC3"
		},
		{
			"bufferView":8,
			"componentType":5126,
			"count":4,
			"type":"VEC3"
		},
		{
			"bufferView":9,
			"componentType":5126,
			"count":4,
			"type":"VEC2"
		},
		{
			"bufferView":10,
			"componentType":5126,
			"count":4,
			"max":[
				50,
				50,
				0
			],
			"min":[
				50,
				-50,
				-75.86389923095703
			],
			"type":"VEC3"
		},
		{
			"bufferView":11,
			"componentType":5126,
			"count":4,
			"type":"VEC3"
		},
		{
			"bufferView":12,
			"componentType":5126,
			"count":4,
			"type":"VEC2"
		},
		{
			"bufferView":13,
			"componentType":5126,
			"count":4,
			"max":[
				50,
				50,
				-75.86389923095703
			],
			"min":[
				-50,
				-50,
				-75.86389923095703
			],
			"type":"VEC3"
		},
		{
			"bufferView":14,
			"componentType":5126,
			"count":4,
			"type":"VEC3"
		},
		{
			"bufferView":15,
			"componentType":5126,
			"count":4,
			"type":"VEC2"
		},
		{
			"bufferView":16,
			"componentType":5123,
			"count":6,
			"type":"SCALAR"
		},
		{
			"bufferView":17,
			"componentType":5126,
			"count":4,
			"max":[
				50,
				50,
				0
			],
			"min":[
				-50,
				-50,
				0
			],
			"type":"VEC3"
		},
		{
			"bufferView":18,
			"componentType":5126,
			"count":4,
			"type":"VEC3"
		},
		{
			"bufferView":19,
			"componentType":5126,
			"count":4,
			"type":"VEC2"
		},
		{
			"bufferView":20,
			"componentType":5126,
			"count":4,
			"max":[
				0,
				10.311455726623535,
				10.311455726623535
			],
			"min":[
				0,
				-10.311455726623535,
				-10.311455726623535
			],
			"type":"VEC3"
		},
		{
			"bufferView":21,
			"componentType":5126,
			"count":4,
			"type":"VEC3"
		},
		{
			"bufferView":22,
			"componentType":5123,
			"count":4,
			"normalized":true,
			"type":"VEC4"
		},
		{
			"bufferView":23,
			"componentType":5126,
			"count":4,
			"max":[
				0.07479999959468842,
				0,
				0.07479999959468842
			],
			"min":[
				-0.07479999959468842,
				0,
				-0.07479999959468842
			],
			"type":"VEC3"
		},
		{
			"bufferView":24,
			"componentType":5126,
			"count":4,
			"type":"VEC3"
		},
		{
			"bufferView":25,
			"componentType":5123,
			"count":6,
			"type":"SCALAR"
		},
		{
			"bufferView":26,
			"componentType":5126,
			"count":4,
			"max":[
				31.547250747680664,
				31.654199600219727,
				0
			],
			"min":[
				-31.547250747680664,
				-31.654199600219727,
				0
			],
			"type":"VEC3"
		},
		{
			"bufferView":27,
			"componentType":5126,
			"count":4,
			"type":"VEC3"
		},
		{
			"bufferView":28,
			"componentType":5123,
			"count":4,
			"normalized":true,
			"type":"VEC4"
		},
		{
			"bufferView":29,
			"componentType":5126,
			"count":4,
			"max":[
				0.121799997985363,
				0,
				0.121799997985363
			],
			"min":[
				-0.121799997985363,
				0,
				-0.121799997985363
			],
			"type":"VEC3"
		},
		{
			"bufferView":30,
			"componentType":5126,
			"count":4,
			"type":"VEC3"
		},
		{
			"bufferView":31,
			"componentType":5123,
			"count":6,
			"type":"SCALAR"
		},
		{
			"bufferView":32,
			"componentType":5126,
			"count":4,
			"max":[
				0.121799997985363,
				0,
				0.121799997985363
			],
			"min":[
				-0.121799997985363,
				0,
				-0.121799997985363
			],
			"type":"VEC3"
		},
		{
			"bufferView":33,
			"componentType":5126,
			"count":4,
			"type":"VEC3"
		},
		{
			"bufferView":34,
			"componentType":5126,
			"count":4,
			"max":[
				0.121799997985363,
				0,
				0.121799997985363
			],
			"min":[
				-0.121799997985363,
				0,
				-0.121799997985363
			],
			"type":"VEC3"
		},
		{
			"bufferView":35,
			"componentType":5126,
			"count":4,
			"type":"VEC3"
		},
		{
			"bufferView":36,
			"componentType":5126,
			"count":4,
			"max":[
				0.121799997985363,
				0,
				0.121799997985363
			],
			"min":[
				-0.121799997985363,
				0,
				-0.121799997985363
			],
			"type":"VEC3"
		},
		{
			"bufferView":37,
			"componentType":5126,
			"count":4,
			"type":"VEC3"
		},
		{
			"bufferView":38,
			"componentType":5126,
			"count":6159,
			"max":[
				4.462500095367432,
				4.462499618530273,
				-0.382659912109375
			],
			"min":[
				-4.462500095367432,
				-4.46250057220459,
				-8.214752197265625
			],
			"type":"VEC3"
		},
		{
			"bufferView":39,
			"componentType":5126,
			"count":6159,
			"type":"VEC3"
		},
		{
			"bufferView":40,
			"componentType":5126,
			"count":6159,
			"type":"VEC2"
		},
		{
			"bufferView":41,
			"componentType":5123,
			"count":35028,
			"type":"SCALAR"
		},
		{
			"bufferView":42,
			"componentType":5126,
			"count":816,
			"max":[
				3.1424999237060547,
				3.1424999237060547,
				0
			],
			"min":[
				-3.1424999237060547,
				-3.1424999237060547,
				-1.0800000429153442
			],
			"type":"VEC3"
		},
		{
			"bufferView":43,
			"componentType":5126,
			"count":816,
			"type":"VEC3"
		},
		{
			"bufferView":44,
			"componentType":5126,
			"count":816,
			"type":"VEC2"
		},
		{
			"bufferView":45,
			"componentType":5121,
			"count":816,
			"normalized":true,
			"type":"VEC4"
		},
		{
			"bufferView":46,
			"componentType":5123,
			"count":816,
			"normalized":true,
			"type":"VEC4"
		},
		{
			"bufferView":47,
			"componentType":5123,
			"count":4752,
			"type":"SCALAR"
		},
		{
			"bufferView":48,
			"componentType":5126,
			"count":909,
			"max":[
				2.6997146606445312,
				2.6996288299560547,
				-1.7475697994232178
			],
			"min":[
				-2.699840545654297,
				-2.6999266147613525,
				-7.147491455078125
			],
			"type":"VEC3"
		},
		{
			"bufferView":49,
			"componentType":5126,
			"count":909,
			"type":"VEC3"
		},
		{
			"bufferView":50,
			"componentType":5126,
			"count":909,
			"type":"VEC2"
		},
		{
			"bufferView":51,
			"componentType":5121,
			"count":909,
			"normalized":true,
			"type":"VEC4"
		},
		{
			"bufferView":52,
			"componentType":5123,
			"count":909,
			"normalized":true,
			"type":"VEC4"
		},
		{
			"bufferView":53,
			"componentType":5123,
			"count":4608,
			"type":"SCALAR"
		},
		{
			"bufferView":54,
			"componentType":5126,
			"count":660,
			"max":[
				3.672475814819336,
				3.612475872039795,
				-5.0547027587890625
			],
			"min":[
				-0.4878491461277008,
				-0.5115311145782471,
				-8.05561637878418
			],
			"type":"VEC3"
		},
		{
			"bufferView":55,
			"componentType":5126,
			"count":660,
			"type":"VEC3"
		},
		{
			"bufferView":56,
			"componentType":5126,
			"count":660,
			"type":"VEC2"
		},
		{
			"bufferView":57,
			"componentType":5121,
			"count":660,
			"normalized":true,
			"type":"VEC4"
		},
		{
			"bufferView":58,
			"componentType":5123,
			"count":660,
			"normalized":true,
			"type":"VEC4"
		},
		{
			"bufferView":59,
			"componentType":5123,
			"count":3504,
			"type":"SCALAR"
		}
	],
	"bufferViews":[
		{
			"buffer":0,
			"byteLength":48,
			"byteOffset":0,
			"target":34962
		},
		{
			"buffer":0,
			"byteLength":48,
			"byteOffset":48,
			"target":34962
		},
		{
			"buffer":0,
			"byteLength":32,
			"byteOffset":96,
			"target":34962
		},
		{
			"buffer":0,
			"byteLength":12,
			"byteOffset":128,
			"target":34963
		},
		{
			"buffer":0,
			"byteLength":48,
			"byteOffset":140,
			"target":34962
		},
		{
			"buffer":0,
			"byteLength":48,
			"byteOffset":188,
			"target":34962
		},
		{
			"buffer":0,
			"byteLength":32,
			"byteOffset":236,
			"target":34962
		},
		{
			"buffer":0,
			"byteLength":48,
			"byteOffset":268,
			"target":34962
		},
		{
			"buffer":0,
			"byteLength":48,
			"byteOffset":316,
			"target":34962
		},
		{
			"buffer":0,
			"byteLength":32,
			"byteOffset":364,
			"target":34962
		},
		{
			"buffer":0,
			"byteLength":48,
			"byteOffset":396,
			"target":34962
		},
		{
			"buffer":0,
			"byteLength":48,
			"byteOffset":444,
			"target":34962
		},
		{
			"buffer":0,
			"byteLength":32,
			"byteOffset":492,
			"target":34962
		},
		{
			"buffer":0,
			"byteLength":48,
			"byteOffset":524,
			"target":34962
		},
		{
			"buffer":0,
			"byteLength":48,
			"byteOffset":572,
			"target":34962
		},
		{
			"buffer":0,
			"byteLength":32,
			"byteOffset":620,
			"target":34962
		},
		{
			"buffer":0,
			"byteLength":12,
			"byteOffset":652,
			"target":34963
		},
		{
			"buffer":0,
			"byteLength":48,
			"byteOffset":664,
			"target":34962
		},
		{
			"buffer":0,
			"byteLength":48,
			"byteOffset":712,
			"target":34962
		},
		{
			"buffer":0,
			"byteLength":32,
			"byteOffset":760,
			"target":34962
		},
		{
			"buffer":0,
			"byteLength":48,
			"byteOffset":792,
			"target":34962
		},
		{
			"buffer":0,
			"byteLength":48,
			"byteOffset":840,
			"target":34962
		},
		{
			"buffer":0,
			"byteLength":32,
			"byteOffset":888,
			"target":34962
		},
		{
			"buffer":0,
			"byteLength":48,
			"byteOffset":920,
			"target":34962
		},
		{
			"buffer":0,
			"byteLength":48,
			"byteOffset":968,
			"target":34962
		},
		{
			"buffer":0,
			"byteLength":12,
			"byteOffset":1016,
			"target":34963
		},
		{
			"buffer":0,
			"byteLength":48,
			"byteOffset":1028,
			"target":34962
		},
		{
			"buffer":0,
			"byteLength":48,
			"byteOffset":1076,
			"target":34962
		},
		{
			"buffer":0,
			"byteLength":32,
			"byteOffset":1124,
			"target":34962
		},
		{
			"buffer":0,
			"byteLength":48,
			"byteOffset":1156,
			"target":34962
		},
		{
			"buffer":0,
			"byteLength":48,
			"byteOffset":1204,
			"target":34962
		},
		{
			"buffer":0,
			"byteLength":12,
			"byteOffset":1252,
			"target":34963
		},
		{
			"buffer":0,
			"byteLength":48,
			"byteOffset":1264,
			"target":34962
		},
		{
			"buffer":0,
			"byteLength":48,
			"byteOffset":1312,
			"target":34962
		},
		{
			"buffer":0,
			"byteLength":48,
			"byteOffset":1360,
			"target":34962
		},
		{
			"buffer":0,
			"byteLength":48,
			"byteOffset":1408,
			"target":34962
		},
		{
			"buffer":0,
			"byteLength":48,
			"byteOffset":1456,
			"target":34962
		},
		{
			"buffer":0,
			"byteLength":48,
			"byteOffset":1504,
			"target":34962
		},
		{
			"buffer":0,
			"byteLength":73908,
			"byteOffset":1552,
			"target":34962
		},
		{
			"buffer":0,
			"byteLength":73908,
			"byteOffset":75460,
			"target":34962
		},
		{
			"buffer":0,
			"byteLength":49272,
			"byteOffset":149368,
			"target":34962
		},
		{
			"buffer":0,
			"byteLength":70056,
			"byteOffset":198640,
			"target":34963
		},
		{
			"buffer":0,
			"byteLength":9792,
			"byteOffset":268696,
			"target":34962
		},
		{
			"buffer":0,
			"byteLength":9792,
			"byteOffset":278488,
			"target":34962
		},
		{
			"buffer":0,
			"byteLength":6528,
			"byteOffset":288280,
			"target":34962
		},
		{
			"buffer":0,
			"byteLength":3264,
			"byteOffset":294808,
			"target":34962
		},
		{
			"buffer":0,
			"byteLength":6528,
			"byteOffset":298072,
			"target":34962
		},
		{
			"buffer":0,
			"byteLength":9504,
			"byteOffset":304600,
			"target":34963
		},
		{
			"buffer":0,
			"byteLength":10908,
			"byteOffset":314104,
			"target":34962
		},
		{
			"buffer":0,
			"byteLength":10908,
			"byteOffset":325012,
			"target":34962
		},
		{
			"buffer":0,
			"byteLength":7272,
			"byteOffset":335920,
			"target":34962
		},
		{
			"buffer":0,
			"byteLength":3636,
			"byteOffset":343192,
			"target":34962
		},
		{
			"buffer":0,
			"byteLength":7272,
			"byteOffset":346828,
			"target":34962
		},
		{
			"buffer":0,
			"byteLength":9216,
			"byteOffset":354100,
			"target":34963
		},
		{
			"buffer":0,
			"byteLength":7920,
			"byteOffset":363316,
			"target":34962
		},
		{
			"buffer":0,
			"byteLength":7920,
			"byteOffset":371236,
			"target":34962
		},
		{
			"buffer":0,
			"byteLength":5280,
			"byteOffset":379156,
			"target":34962
		},
		{
			"buffer":0,
			"byteLength":2640,
			"byteOffset":384436,
			"target":34962
		},
		{
			"buffer":0,
			"byteLength":5280,
			"byteOffset":387076,
			"target":34962
		},
		{
			"buffer":0,
			"byteLength":7008,
			"byteOffset":392356,
			"target":34963
		}
	],
	"samplers":[
		{
			"magFilter":9729,
			"minFilter":9987
		}
	],
	"buffers":[
		{
			"byteLength":399364,
			"uri":"Shaderball.bin"
		}
	]
}
